<?xml version="1.0" encoding="UTF-8"?>
<svg id="Capa_1" xmlns="http://www.w3.org/2000/svg" version="1.1" xmlns:xlink="http://www.w3.org/1999/xlink" viewBox="0 0 65 65">
  <!-- Generator: Adobe Illustrator 30.0.0, SVG Export Plug-In . SVG Version: 2.1.1 Build 123)  -->
  <defs>
    <style>
      .st0 {
        mask: url(#mask);
      }

      .st1 {
        fill: #9da2a4;
      }

      .st2 {
        fill: url(#Degradado_sin_nombre);
      }
    </style>
    <linearGradient id="Degradado_sin_nombre" data-name="Degradado sin nombre" x1="18.86" y1="22.09" x2="52.56" y2="50.51" gradientTransform="translate(0 66) scale(1 -1)" gradientUnits="userSpaceOnUse">
      <stop offset="0" stop-color="#4893fc"/>
      <stop offset=".27" stop-color="#4893fc"/>
      <stop offset=".78" stop-color="#969dff"/>
      <stop offset="1" stop-color="#bd99fe"/>
    </linearGradient>
    <mask id="mask" x="-21.17" y="-19.54" width="106.91" height="102.17" maskUnits="userSpaceOnUse">
      <g id="maskme">
        <path d="M32.45,0c.68,0,1.27.47,1.44,1.12.51,2.02,1.18,3.99,2,5.91,2.15,5,5.1,9.38,8.85,13.13,3.75,3.75,8.13,6.7,13.12,8.85,1.91.82,3.89,1.49,5.91,2,.66.17,1.12.76,1.12,1.44s-.46,1.27-1.12,1.44c-2.02.51-3.99,1.18-5.9,2-5,2.15-9.38,5.1-13.12,8.85-3.75,3.75-6.7,8.13-8.85,13.12-.82,1.91-1.49,3.89-2,5.91-.17.66-.76,1.12-1.44,1.12-.68,0-1.27-.46-1.44-1.12-.51-2.02-1.18-3.99-2-5.9-2.15-5-5.1-9.38-8.85-13.12-3.75-3.75-8.12-6.7-13.12-8.85-1.91-.82-3.89-1.49-5.91-2-.66-.16-1.12-.76-1.12-1.44,0-.68.47-1.27,1.12-1.44,2.02-.51,3.99-1.18,5.91-2,5-2.15,9.38-5.1,13.13-8.85,3.75-3.75,6.7-8.12,8.85-13.12.82-1.91,1.49-3.89,2-5.91.16-.66.76-1.12,1.44-1.13Z"/>
        <path class="st2" d="M32.45,0c.68,0,1.27.47,1.44,1.12.51,2.02,1.18,3.99,2,5.91,2.15,5,5.1,9.38,8.85,13.13,3.75,3.75,8.13,6.7,13.12,8.85,1.91.82,3.89,1.49,5.91,2,.66.17,1.12.76,1.12,1.44s-.46,1.27-1.12,1.44c-2.02.51-3.99,1.18-5.9,2-5,2.15-9.38,5.1-13.12,8.85-3.75,3.75-6.7,8.13-8.85,13.12-.82,1.91-1.49,3.89-2,5.91-.17.66-.76,1.12-1.44,1.12-.68,0-1.27-.46-1.44-1.12-.51-2.02-1.18-3.99-2-5.9-2.15-5-5.1-9.38-8.85-13.12-3.75-3.75-8.12-6.7-13.12-8.85-1.91-.82-3.89-1.49-5.91-2-.66-.16-1.12-.76-1.12-1.44,0-.68.47-1.27,1.12-1.44,2.02-.51,3.99-1.18,5.91-2,5-2.15,9.38-5.1,13.13-8.85,3.75-3.75,6.7-8.12,8.85-13.12.82-1.91,1.49-3.89,2-5.91.16-.66.76-1.12,1.44-1.13Z"/>
      </g>
    </mask>
  </defs>
  <g class="st0">
    <g>
      <path class="st1" d="M-5.86,50.73c7.5,2.66,16.12-2.33,19.25-11.15,3.13-8.82-.41-18.13-7.9-20.79-7.5-2.66-16.12,2.33-19.25,11.15-3.13,8.82.41,18.13,7.9,20.8Z"/>
      <path class="st1" d="M27.43,21.65c10.3,0,18.65-8.53,18.65-19.06s-8.35-19.06-18.65-19.06S8.78-7.94,8.78,2.59s8.35,19.06,18.65,19.06h0Z"/>
      <path class="st1" d="M20.18,82.61c10.75-.53,18.92-12.24,18.24-26.17-.68-13.93-9.95-24.8-20.7-24.27C6.97,32.69-1.2,44.41-.52,58.34c.68,13.93,9.95,24.8,20.7,24.27Z"/>
      <path class="st1" d="M20.18,82.61c10.75-.53,18.92-12.24,18.24-26.17-.68-13.93-9.95-24.8-20.7-24.27C6.97,32.69-1.2,44.41-.52,58.34c.68,13.93,9.95,24.8,20.7,24.27Z"/>
      <path class="st1" d="M30.95,74.18c9.01-5.49,11.43-17.98,5.39-27.9-6.04-9.92-18.24-13.52-27.26-8.04C.07,43.73-2.34,56.22,3.7,66.14c6.04,9.92,18.24,13.52,27.26,8.04Z"/>
      <path class="st1" d="M67.39,42.99c10.13,0,18.35-7.91,18.35-17.67s-8.21-17.67-18.35-17.67-18.35,7.91-18.35,17.67,8.21,17.67,18.35,17.67Z"/>
      <path class="st1" d="M-13.06,40.94c9.33,7.09,22.96,4.87,30.44-4.97,7.48-9.84,5.99-23.57-3.34-30.66C4.7-1.79-8.92.44-16.41,10.28c-7.48,9.84-5.99,23.57,3.34,30.66Z"/>
      <path class="st1" d="M34.74,51.43c11.13,7.66,25.9,5.52,32.97-4.76,7.07-10.29,3.78-24.83-7.36-32.49-11.14-7.66-25.9-5.52-32.97,4.76-7.07,10.29-3.78,24.83,7.36,32.49h0Z"/>
      <path class="st1" d="M54.98-2.34c2.83,3.85-.81,11.34-8.13,16.73-7.32,5.39-15.56,6.63-18.39,2.78-2.83-3.85.81-11.34,8.13-16.73,7.32-5.39,15.56-6.63,18.39-2.78h0Z"/>
      <path class="st1" d="M31.73,16.1c11.33-10.51,15.21-24.73,8.68-31.77-6.53-7.04-21.01-4.23-32.33,6.27S-7.14,15.34-.61,22.38c6.53,7.04,21.01,4.23,32.33-6.27Z"/>
      <path class="st1" d="M8.51,53.84c6.73,4.82,14.46,5.55,17.26,1.64,2.8-3.92-.38-10.99-7.12-15.81-6.73-4.82-14.46-5.55-17.26-1.64-2.8,3.92.38,10.99,7.12,15.81Z"/>
    </g>
  </g>
</svg>