<?xml version="1.0" encoding="UTF-8"?>
<svg id="Capa_1" xmlns="http://www.w3.org/2000/svg" version="1.1" viewBox="0 0 48 48">
  <!-- Generator: Adobe Illustrator 30.0.0, SVG Export Plug-In . SVG Version: 2.1.1 Build 123)  -->
  <defs>
    <style>
      .st0 {
        fill: #9da2a4;
      }
    </style>
  </defs>
  <path class="st0" d="M18.54,30.53l15.96-11.78c.78-.58,1.9-.35,2.27.55,1.96,4.73,1.08,10.41-2.82,14.32-3.9,3.9-9.33,4.76-14.3,2.81l-5.42,2.51c7.78,5.31,17.22,4,23.12-1.9,4.68-4.68,6.13-11.06,4.78-16.81h.01c-1.97-8.44.48-11.82,5.5-18.72.12-.16.24-.33.36-.5l-6.6,6.6v-.02l-22.86,22.96M15.25,33.39c-5.58-5.33-4.62-13.58.14-18.34,3.52-3.52,9.29-4.96,14.33-2.85l5.41-2.5c-.97-.7-2.22-1.46-3.66-1.99-6.48-2.67-14.24-1.34-19.5,3.92-5.07,5.06-6.66,12.85-3.92,19.5,2.04,4.97-1.31,8.48-4.68,12.02-1.2,1.26-2.4,2.51-3.36,3.84l15.24-13.61"/>
</svg>